<mxfile host="app.diagrams.net" agent="Mozilla/5.0 (Windows NT 10.0; Win64; x64) AppleWebKit/537.36 (KHTML, like Gecko) Chrome/134.0.0.0 Safari/537.36 Edg/134.0.0.0" version="26.1.0">
  <diagram id="C5RBs43oDa-KdzZeNtuy" name="Page-1">
    <mxGraphModel dx="1026" dy="1681" grid="1" gridSize="10" guides="1" tooltips="1" connect="1" arrows="1" fold="1" page="1" pageScale="1" pageWidth="827" pageHeight="1169" math="0" shadow="0">
      <root>
        <mxCell id="WIyWlLk6GJQsqaUBKTNV-0" />
        <mxCell id="WIyWlLk6GJQsqaUBKTNV-1" parent="WIyWlLk6GJQsqaUBKTNV-0" />
        <mxCell id="JDfibJYSGMVDQG5PVyvn-8" style="edgeStyle=orthogonalEdgeStyle;rounded=0;orthogonalLoop=1;jettySize=auto;html=1;exitX=0.5;exitY=1;exitDx=0;exitDy=0;exitPerimeter=0;entryX=0.5;entryY=0;entryDx=0;entryDy=0;endArrow=blockThin;endFill=1;strokeWidth=2;" edge="1" parent="WIyWlLk6GJQsqaUBKTNV-1" source="JDfibJYSGMVDQG5PVyvn-0" target="JDfibJYSGMVDQG5PVyvn-1">
          <mxGeometry relative="1" as="geometry" />
        </mxCell>
        <mxCell id="JDfibJYSGMVDQG5PVyvn-0" value="&lt;div&gt;PAGINA&lt;/div&gt;&lt;div&gt;INICIO DE SESIÃ“N&lt;/div&gt;" style="strokeWidth=2;html=1;shape=mxgraph.flowchart.start_1;whiteSpace=wrap;fontFamily=Courier New;fillColor=#dae8fc;strokeColor=#6c8ebf;gradientColor=#7ea6e0;" vertex="1" parent="WIyWlLk6GJQsqaUBKTNV-1">
          <mxGeometry x="339" y="-20" width="150" height="90" as="geometry" />
        </mxCell>
        <mxCell id="JDfibJYSGMVDQG5PVyvn-15" style="edgeStyle=orthogonalEdgeStyle;rounded=0;orthogonalLoop=1;jettySize=auto;html=1;exitX=0.5;exitY=1;exitDx=0;exitDy=0;entryX=0.5;entryY=0;entryDx=0;entryDy=0;strokeWidth=2;endArrow=block;endFill=1;" edge="1" parent="WIyWlLk6GJQsqaUBKTNV-1" source="JDfibJYSGMVDQG5PVyvn-1" target="JDfibJYSGMVDQG5PVyvn-13">
          <mxGeometry relative="1" as="geometry" />
        </mxCell>
        <mxCell id="JDfibJYSGMVDQG5PVyvn-1" value="INTRODUCCION DE PIN" style="rounded=1;whiteSpace=wrap;html=1;absoluteArcSize=1;arcSize=14;strokeWidth=2;fontFamily=Courier New;fillColor=#e1d5e7;strokeColor=#9673a6;" vertex="1" parent="WIyWlLk6GJQsqaUBKTNV-1">
          <mxGeometry x="329" y="110" width="170" height="80" as="geometry" />
        </mxCell>
        <mxCell id="JDfibJYSGMVDQG5PVyvn-2" value="PIN CORRECTO" style="rounded=1;whiteSpace=wrap;html=1;absoluteArcSize=1;arcSize=14;strokeWidth=2;fontFamily=Courier New;fillColor=#d5e8d4;strokeColor=#82b366;" vertex="1" parent="WIyWlLk6GJQsqaUBKTNV-1">
          <mxGeometry x="510" y="505" width="170" height="80" as="geometry" />
        </mxCell>
        <mxCell id="JDfibJYSGMVDQG5PVyvn-4" style="edgeStyle=orthogonalEdgeStyle;rounded=0;orthogonalLoop=1;jettySize=auto;html=1;exitX=1;exitY=0.5;exitDx=0;exitDy=0;exitPerimeter=0;entryX=0.5;entryY=0;entryDx=0;entryDy=0;strokeWidth=2;endArrow=block;endFill=1;" edge="1" parent="WIyWlLk6GJQsqaUBKTNV-1" source="JDfibJYSGMVDQG5PVyvn-3" target="JDfibJYSGMVDQG5PVyvn-2">
          <mxGeometry relative="1" as="geometry" />
        </mxCell>
        <mxCell id="JDfibJYSGMVDQG5PVyvn-10" style="edgeStyle=orthogonalEdgeStyle;rounded=0;orthogonalLoop=1;jettySize=auto;html=1;exitX=0;exitY=0.5;exitDx=0;exitDy=0;exitPerimeter=0;entryX=0.5;entryY=0;entryDx=0;entryDy=0;strokeWidth=2;endArrow=blockThin;endFill=1;" edge="1" parent="WIyWlLk6GJQsqaUBKTNV-1" source="JDfibJYSGMVDQG5PVyvn-3" target="JDfibJYSGMVDQG5PVyvn-9">
          <mxGeometry relative="1" as="geometry" />
        </mxCell>
        <mxCell id="JDfibJYSGMVDQG5PVyvn-3" value="VERIFICAR&lt;div&gt;PIN&lt;/div&gt;" style="strokeWidth=2;html=1;shape=mxgraph.flowchart.decision;whiteSpace=wrap;fontFamily=Courier New;fillColor=#ffe6cc;strokeColor=#d79b00;" vertex="1" parent="WIyWlLk6GJQsqaUBKTNV-1">
          <mxGeometry x="346" y="390" width="136" height="130" as="geometry" />
        </mxCell>
        <mxCell id="JDfibJYSGMVDQG5PVyvn-17" style="edgeStyle=orthogonalEdgeStyle;rounded=0;orthogonalLoop=1;jettySize=auto;html=1;exitX=0.5;exitY=1;exitDx=0;exitDy=0;exitPerimeter=0;entryX=0.5;entryY=0;entryDx=0;entryDy=0;strokeWidth=2;endArrow=blockThin;endFill=1;" edge="1" parent="WIyWlLk6GJQsqaUBKTNV-1" source="JDfibJYSGMVDQG5PVyvn-5" target="JDfibJYSGMVDQG5PVyvn-12">
          <mxGeometry relative="1" as="geometry" />
        </mxCell>
        <mxCell id="JDfibJYSGMVDQG5PVyvn-5" value="&lt;div&gt;PAGINA&amp;nbsp;&lt;span style=&quot;background-color: transparent; color: light-dark(rgb(0, 0, 0), rgb(255, 255, 255));&quot;&gt;MENU&lt;/span&gt;&lt;/div&gt;&lt;div&gt;&lt;span style=&quot;background-color: transparent; color: light-dark(rgb(0, 0, 0), rgb(255, 255, 255));&quot;&gt;INFORMACION USUARIO&lt;/span&gt;&lt;/div&gt;" style="strokeWidth=2;html=1;shape=mxgraph.flowchart.start_1;whiteSpace=wrap;fontFamily=Courier New;fillColor=#dae8fc;strokeColor=#6c8ebf;" vertex="1" parent="WIyWlLk6GJQsqaUBKTNV-1">
          <mxGeometry x="520" y="660" width="150" height="90" as="geometry" />
        </mxCell>
        <mxCell id="JDfibJYSGMVDQG5PVyvn-6" style="edgeStyle=orthogonalEdgeStyle;rounded=0;orthogonalLoop=1;jettySize=auto;html=1;exitX=0.5;exitY=1;exitDx=0;exitDy=0;entryX=0.5;entryY=0;entryDx=0;entryDy=0;entryPerimeter=0;strokeWidth=2;endArrow=block;endFill=1;" edge="1" parent="WIyWlLk6GJQsqaUBKTNV-1" source="JDfibJYSGMVDQG5PVyvn-2" target="JDfibJYSGMVDQG5PVyvn-5">
          <mxGeometry relative="1" as="geometry" />
        </mxCell>
        <mxCell id="JDfibJYSGMVDQG5PVyvn-14" style="edgeStyle=orthogonalEdgeStyle;rounded=0;orthogonalLoop=1;jettySize=auto;html=1;exitX=0.5;exitY=1;exitDx=0;exitDy=0;entryX=0;entryY=0.5;entryDx=0;entryDy=0;strokeWidth=1;endArrow=block;endFill=1;" edge="1" parent="WIyWlLk6GJQsqaUBKTNV-1" source="JDfibJYSGMVDQG5PVyvn-9" target="JDfibJYSGMVDQG5PVyvn-1">
          <mxGeometry relative="1" as="geometry">
            <Array as="points">
              <mxPoint x="275" y="605" />
              <mxPoint x="170" y="605" />
              <mxPoint x="170" y="150" />
            </Array>
          </mxGeometry>
        </mxCell>
        <mxCell id="JDfibJYSGMVDQG5PVyvn-9" value="PIN INCORRECTO&lt;div&gt;&quot;ERROR&quot;&lt;/div&gt;" style="rounded=1;whiteSpace=wrap;html=1;absoluteArcSize=1;arcSize=14;strokeWidth=2;fontFamily=Courier New;fillColor=#f8cecc;strokeColor=#b85450;" vertex="1" parent="WIyWlLk6GJQsqaUBKTNV-1">
          <mxGeometry x="190" y="505" width="170" height="80" as="geometry" />
        </mxCell>
        <mxCell id="JDfibJYSGMVDQG5PVyvn-27" style="edgeStyle=orthogonalEdgeStyle;rounded=0;orthogonalLoop=1;jettySize=auto;html=1;exitX=0;exitY=1;exitDx=0;exitDy=0;entryX=0.5;entryY=0;entryDx=0;entryDy=0;strokeWidth=2;endArrow=block;endFill=1;" edge="1" parent="WIyWlLk6GJQsqaUBKTNV-1" source="JDfibJYSGMVDQG5PVyvn-12" target="JDfibJYSGMVDQG5PVyvn-18">
          <mxGeometry relative="1" as="geometry" />
        </mxCell>
        <mxCell id="JDfibJYSGMVDQG5PVyvn-34" style="edgeStyle=orthogonalEdgeStyle;rounded=0;orthogonalLoop=1;jettySize=auto;html=1;exitX=0.25;exitY=1;exitDx=0;exitDy=0;entryX=0.5;entryY=0;entryDx=0;entryDy=0;strokeWidth=2;endArrow=block;endFill=1;" edge="1" parent="WIyWlLk6GJQsqaUBKTNV-1" source="JDfibJYSGMVDQG5PVyvn-12" target="JDfibJYSGMVDQG5PVyvn-19">
          <mxGeometry relative="1" as="geometry" />
        </mxCell>
        <mxCell id="JDfibJYSGMVDQG5PVyvn-50" style="edgeStyle=orthogonalEdgeStyle;rounded=0;orthogonalLoop=1;jettySize=auto;html=1;exitX=0.75;exitY=1;exitDx=0;exitDy=0;strokeWidth=2;endArrow=block;endFill=1;" edge="1" parent="WIyWlLk6GJQsqaUBKTNV-1" source="JDfibJYSGMVDQG5PVyvn-12" target="JDfibJYSGMVDQG5PVyvn-20">
          <mxGeometry relative="1" as="geometry" />
        </mxCell>
        <mxCell id="JDfibJYSGMVDQG5PVyvn-51" style="edgeStyle=orthogonalEdgeStyle;rounded=0;orthogonalLoop=1;jettySize=auto;html=1;exitX=1;exitY=1;exitDx=0;exitDy=0;entryX=0.5;entryY=0;entryDx=0;entryDy=0;strokeWidth=2;endArrow=block;endFill=1;" edge="1" parent="WIyWlLk6GJQsqaUBKTNV-1" source="JDfibJYSGMVDQG5PVyvn-12" target="JDfibJYSGMVDQG5PVyvn-21">
          <mxGeometry relative="1" as="geometry">
            <Array as="points">
              <mxPoint x="680" y="900" />
              <mxPoint x="1045" y="900" />
            </Array>
          </mxGeometry>
        </mxCell>
        <mxCell id="JDfibJYSGMVDQG5PVyvn-12" value="MENU DE ACCIONES" style="rounded=1;whiteSpace=wrap;html=1;absoluteArcSize=1;arcSize=14;strokeWidth=2;fontFamily=Courier New;fillColor=#dae8fc;strokeColor=#6c8ebf;" vertex="1" parent="WIyWlLk6GJQsqaUBKTNV-1">
          <mxGeometry x="510" y="800" width="170" height="80" as="geometry" />
        </mxCell>
        <mxCell id="JDfibJYSGMVDQG5PVyvn-13" value="&lt;font face=&quot;Courier New&quot;&gt;PIN&amp;nbsp;&lt;/font&gt;&lt;div&gt;&lt;font face=&quot;Courier New&quot;&gt;DE USUARIO&lt;/font&gt;&lt;/div&gt;" style="shape=parallelogram;html=1;strokeWidth=2;perimeter=parallelogramPerimeter;whiteSpace=wrap;rounded=1;arcSize=12;size=0.23;fillColor=#fff2cc;strokeColor=#d6b656;" vertex="1" parent="WIyWlLk6GJQsqaUBKTNV-1">
          <mxGeometry x="347" y="260" width="134" height="70" as="geometry" />
        </mxCell>
        <mxCell id="JDfibJYSGMVDQG5PVyvn-16" style="edgeStyle=orthogonalEdgeStyle;rounded=0;orthogonalLoop=1;jettySize=auto;html=1;exitX=0.5;exitY=1;exitDx=0;exitDy=0;entryX=0.5;entryY=0;entryDx=0;entryDy=0;entryPerimeter=0;strokeWidth=2;endArrow=block;endFill=1;" edge="1" parent="WIyWlLk6GJQsqaUBKTNV-1" source="JDfibJYSGMVDQG5PVyvn-13" target="JDfibJYSGMVDQG5PVyvn-3">
          <mxGeometry relative="1" as="geometry" />
        </mxCell>
        <mxCell id="JDfibJYSGMVDQG5PVyvn-26" style="edgeStyle=orthogonalEdgeStyle;rounded=0;orthogonalLoop=1;jettySize=auto;html=1;exitX=0.5;exitY=1;exitDx=0;exitDy=0;entryX=0.5;entryY=0;entryDx=0;entryDy=0;" edge="1" parent="WIyWlLk6GJQsqaUBKTNV-1" source="JDfibJYSGMVDQG5PVyvn-18" target="JDfibJYSGMVDQG5PVyvn-22">
          <mxGeometry relative="1" as="geometry" />
        </mxCell>
        <mxCell id="JDfibJYSGMVDQG5PVyvn-18" value="DEPOSITAR" style="rounded=1;whiteSpace=wrap;html=1;absoluteArcSize=1;arcSize=14;strokeWidth=2;fontFamily=Courier New;fillColor=#dae8fc;strokeColor=#6c8ebf;" vertex="1" parent="WIyWlLk6GJQsqaUBKTNV-1">
          <mxGeometry x="230" y="950" width="170" height="80" as="geometry" />
        </mxCell>
        <mxCell id="JDfibJYSGMVDQG5PVyvn-33" style="edgeStyle=orthogonalEdgeStyle;rounded=0;orthogonalLoop=1;jettySize=auto;html=1;exitX=0.5;exitY=1;exitDx=0;exitDy=0;entryX=0.5;entryY=0;entryDx=0;entryDy=0;" edge="1" parent="WIyWlLk6GJQsqaUBKTNV-1" source="JDfibJYSGMVDQG5PVyvn-19" target="JDfibJYSGMVDQG5PVyvn-28">
          <mxGeometry relative="1" as="geometry" />
        </mxCell>
        <mxCell id="JDfibJYSGMVDQG5PVyvn-19" value="RETIRAR" style="rounded=1;whiteSpace=wrap;html=1;absoluteArcSize=1;arcSize=14;strokeWidth=2;fontFamily=Courier New;fillColor=#dae8fc;strokeColor=#6c8ebf;" vertex="1" parent="WIyWlLk6GJQsqaUBKTNV-1">
          <mxGeometry x="520" y="950" width="170" height="80" as="geometry" />
        </mxCell>
        <mxCell id="JDfibJYSGMVDQG5PVyvn-41" style="edgeStyle=orthogonalEdgeStyle;rounded=0;orthogonalLoop=1;jettySize=auto;html=1;entryX=0.5;entryY=0;entryDx=0;entryDy=0;" edge="1" parent="WIyWlLk6GJQsqaUBKTNV-1" source="JDfibJYSGMVDQG5PVyvn-20" target="JDfibJYSGMVDQG5PVyvn-40">
          <mxGeometry relative="1" as="geometry" />
        </mxCell>
        <mxCell id="JDfibJYSGMVDQG5PVyvn-20" value="TRANSACCIONES" style="rounded=1;whiteSpace=wrap;html=1;absoluteArcSize=1;arcSize=14;strokeWidth=2;fontFamily=Courier New;fillColor=#dae8fc;strokeColor=#6c8ebf;" vertex="1" parent="WIyWlLk6GJQsqaUBKTNV-1">
          <mxGeometry x="740" y="950" width="170" height="80" as="geometry" />
        </mxCell>
        <mxCell id="JDfibJYSGMVDQG5PVyvn-44" style="edgeStyle=orthogonalEdgeStyle;rounded=0;orthogonalLoop=1;jettySize=auto;html=1;exitX=0.5;exitY=1;exitDx=0;exitDy=0;entryX=0.5;entryY=0;entryDx=0;entryDy=0;" edge="1" parent="WIyWlLk6GJQsqaUBKTNV-1" source="JDfibJYSGMVDQG5PVyvn-21" target="JDfibJYSGMVDQG5PVyvn-43">
          <mxGeometry relative="1" as="geometry" />
        </mxCell>
        <mxCell id="JDfibJYSGMVDQG5PVyvn-21" value="PAGOS DE SERVICIO" style="rounded=1;whiteSpace=wrap;html=1;absoluteArcSize=1;arcSize=14;strokeWidth=2;fontFamily=Courier New;fillColor=#dae8fc;strokeColor=#6c8ebf;" vertex="1" parent="WIyWlLk6GJQsqaUBKTNV-1">
          <mxGeometry x="960" y="950" width="170" height="80" as="geometry" />
        </mxCell>
        <mxCell id="JDfibJYSGMVDQG5PVyvn-25" style="edgeStyle=orthogonalEdgeStyle;rounded=0;orthogonalLoop=1;jettySize=auto;html=1;exitX=0.5;exitY=1;exitDx=0;exitDy=0;entryX=0.5;entryY=0;entryDx=0;entryDy=0;" edge="1" parent="WIyWlLk6GJQsqaUBKTNV-1" source="JDfibJYSGMVDQG5PVyvn-22" target="JDfibJYSGMVDQG5PVyvn-23">
          <mxGeometry relative="1" as="geometry" />
        </mxCell>
        <mxCell id="JDfibJYSGMVDQG5PVyvn-22" value="&lt;font face=&quot;Courier New&quot;&gt;INGRESO&amp;nbsp;&lt;/font&gt;&lt;div&gt;&lt;font face=&quot;Courier New&quot;&gt;DE&amp;nbsp;&lt;/font&gt;&lt;span style=&quot;font-family: &amp;quot;Courier New&amp;quot;; background-color: transparent; color: light-dark(rgb(0, 0, 0), rgb(255, 255, 255));&quot;&gt;MONTO&lt;/span&gt;&lt;/div&gt;" style="shape=parallelogram;html=1;strokeWidth=2;perimeter=parallelogramPerimeter;whiteSpace=wrap;rounded=1;arcSize=12;size=0.23;fillColor=#fff2cc;strokeColor=#d6b656;" vertex="1" parent="WIyWlLk6GJQsqaUBKTNV-1">
          <mxGeometry x="248" y="1070" width="134" height="70" as="geometry" />
        </mxCell>
        <mxCell id="JDfibJYSGMVDQG5PVyvn-35" style="edgeStyle=orthogonalEdgeStyle;rounded=0;orthogonalLoop=1;jettySize=auto;html=1;exitX=0.5;exitY=1;exitDx=0;exitDy=0;entryX=0;entryY=0.75;entryDx=0;entryDy=0;" edge="1" parent="WIyWlLk6GJQsqaUBKTNV-1" source="JDfibJYSGMVDQG5PVyvn-23" target="JDfibJYSGMVDQG5PVyvn-12">
          <mxGeometry relative="1" as="geometry">
            <Array as="points">
              <mxPoint x="315" y="1280" />
              <mxPoint x="200" y="1280" />
              <mxPoint x="200" y="860" />
            </Array>
          </mxGeometry>
        </mxCell>
        <mxCell id="JDfibJYSGMVDQG5PVyvn-23" value="CONFIRMACION&lt;div&gt;ACTUALIZACION DE SALDO&lt;/div&gt;" style="rounded=1;whiteSpace=wrap;html=1;absoluteArcSize=1;arcSize=14;strokeWidth=2;fontFamily=Courier New;fillColor=#d5e8d4;strokeColor=#82b366;" vertex="1" parent="WIyWlLk6GJQsqaUBKTNV-1">
          <mxGeometry x="230" y="1180" width="170" height="80" as="geometry" />
        </mxCell>
        <mxCell id="JDfibJYSGMVDQG5PVyvn-28" value="&lt;font face=&quot;Courier New&quot;&gt;INGRESO&amp;nbsp;&lt;/font&gt;&lt;div&gt;&lt;font style=&quot;background-color: transparent; color: light-dark(rgb(0, 0, 0), rgb(255, 255, 255));&quot; face=&quot;Courier New&quot;&gt;DE&amp;nbsp;&lt;/font&gt;&lt;span style=&quot;background-color: transparent; color: light-dark(rgb(0, 0, 0), rgb(255, 255, 255)); font-family: &amp;quot;Courier New&amp;quot;;&quot;&gt;MONTO&lt;/span&gt;&lt;/div&gt;" style="shape=parallelogram;html=1;strokeWidth=2;perimeter=parallelogramPerimeter;whiteSpace=wrap;rounded=1;arcSize=12;size=0.23;fillColor=#fff2cc;strokeColor=#d6b656;" vertex="1" parent="WIyWlLk6GJQsqaUBKTNV-1">
          <mxGeometry x="470" y="1070" width="134" height="70" as="geometry" />
        </mxCell>
        <mxCell id="JDfibJYSGMVDQG5PVyvn-31" style="edgeStyle=orthogonalEdgeStyle;rounded=0;orthogonalLoop=1;jettySize=auto;html=1;exitX=0;exitY=0.5;exitDx=0;exitDy=0;exitPerimeter=0;entryX=0.5;entryY=0;entryDx=0;entryDy=0;" edge="1" parent="WIyWlLk6GJQsqaUBKTNV-1" source="JDfibJYSGMVDQG5PVyvn-29" target="JDfibJYSGMVDQG5PVyvn-30">
          <mxGeometry relative="1" as="geometry" />
        </mxCell>
        <mxCell id="JDfibJYSGMVDQG5PVyvn-29" value="VERIFICAR&lt;div&gt;FONDOS&lt;/div&gt;" style="strokeWidth=2;html=1;shape=mxgraph.flowchart.decision;whiteSpace=wrap;fontFamily=Courier New;fillColor=#ffe6cc;strokeColor=#d79b00;" vertex="1" parent="WIyWlLk6GJQsqaUBKTNV-1">
          <mxGeometry x="477" y="1190" width="120" height="120" as="geometry" />
        </mxCell>
        <mxCell id="JDfibJYSGMVDQG5PVyvn-36" style="edgeStyle=orthogonalEdgeStyle;rounded=0;orthogonalLoop=1;jettySize=auto;html=1;exitX=0.5;exitY=1;exitDx=0;exitDy=0;entryX=0;entryY=0.5;entryDx=0;entryDy=0;" edge="1" parent="WIyWlLk6GJQsqaUBKTNV-1" source="JDfibJYSGMVDQG5PVyvn-30" target="JDfibJYSGMVDQG5PVyvn-12">
          <mxGeometry relative="1" as="geometry">
            <Array as="points">
              <mxPoint x="424" y="1460" />
              <mxPoint x="130" y="1460" />
              <mxPoint x="130" y="840" />
            </Array>
          </mxGeometry>
        </mxCell>
        <mxCell id="JDfibJYSGMVDQG5PVyvn-30" value="CORRECTO&lt;div&gt;FONDOS SUFICIENTES&lt;/div&gt;&lt;div&gt;ACTUALIZAR SALDO&lt;/div&gt;" style="rounded=1;whiteSpace=wrap;html=1;absoluteArcSize=1;arcSize=14;strokeWidth=2;fontFamily=Courier New;fillColor=#d5e8d4;strokeColor=#82b366;" vertex="1" parent="WIyWlLk6GJQsqaUBKTNV-1">
          <mxGeometry x="339" y="1360" width="170" height="80" as="geometry" />
        </mxCell>
        <mxCell id="JDfibJYSGMVDQG5PVyvn-32" style="edgeStyle=orthogonalEdgeStyle;rounded=0;orthogonalLoop=1;jettySize=auto;html=1;exitX=0.5;exitY=1;exitDx=0;exitDy=0;entryX=0.5;entryY=0;entryDx=0;entryDy=0;entryPerimeter=0;" edge="1" parent="WIyWlLk6GJQsqaUBKTNV-1" source="JDfibJYSGMVDQG5PVyvn-28" target="JDfibJYSGMVDQG5PVyvn-29">
          <mxGeometry relative="1" as="geometry" />
        </mxCell>
        <mxCell id="JDfibJYSGMVDQG5PVyvn-39" style="edgeStyle=orthogonalEdgeStyle;rounded=0;orthogonalLoop=1;jettySize=auto;html=1;exitX=0.5;exitY=1;exitDx=0;exitDy=0;entryX=1;entryY=0.75;entryDx=0;entryDy=0;" edge="1" parent="WIyWlLk6GJQsqaUBKTNV-1" source="JDfibJYSGMVDQG5PVyvn-37" target="JDfibJYSGMVDQG5PVyvn-12">
          <mxGeometry relative="1" as="geometry">
            <Array as="points">
              <mxPoint x="645" y="1440" />
              <mxPoint x="645" y="1460" />
              <mxPoint x="730" y="1460" />
              <mxPoint x="730" y="860" />
            </Array>
          </mxGeometry>
        </mxCell>
        <mxCell id="JDfibJYSGMVDQG5PVyvn-37" value="&lt;div&gt;&lt;br&gt;&lt;/div&gt;&lt;div&gt;ERROR&lt;/div&gt;&lt;div&gt;FONDOS INSUFICIENTES&lt;/div&gt;&lt;div&gt;&lt;br&gt;&lt;/div&gt;" style="rounded=1;whiteSpace=wrap;html=1;absoluteArcSize=1;arcSize=14;strokeWidth=2;fontFamily=Courier New;fillColor=#f8cecc;strokeColor=#b85450;" vertex="1" parent="WIyWlLk6GJQsqaUBKTNV-1">
          <mxGeometry x="550" y="1360" width="170" height="80" as="geometry" />
        </mxCell>
        <mxCell id="JDfibJYSGMVDQG5PVyvn-38" style="edgeStyle=orthogonalEdgeStyle;rounded=0;orthogonalLoop=1;jettySize=auto;html=1;exitX=1;exitY=0.5;exitDx=0;exitDy=0;exitPerimeter=0;entryX=0.556;entryY=-0.027;entryDx=0;entryDy=0;entryPerimeter=0;" edge="1" parent="WIyWlLk6GJQsqaUBKTNV-1" source="JDfibJYSGMVDQG5PVyvn-29" target="JDfibJYSGMVDQG5PVyvn-37">
          <mxGeometry relative="1" as="geometry" />
        </mxCell>
        <mxCell id="JDfibJYSGMVDQG5PVyvn-42" style="edgeStyle=orthogonalEdgeStyle;rounded=0;orthogonalLoop=1;jettySize=auto;html=1;exitX=0.5;exitY=1;exitDx=0;exitDy=0;entryX=1;entryY=0.5;entryDx=0;entryDy=0;" edge="1" parent="WIyWlLk6GJQsqaUBKTNV-1" source="JDfibJYSGMVDQG5PVyvn-40" target="JDfibJYSGMVDQG5PVyvn-12">
          <mxGeometry relative="1" as="geometry">
            <Array as="points">
              <mxPoint x="825" y="1180" />
              <mxPoint x="920" y="1180" />
              <mxPoint x="920" y="840" />
            </Array>
          </mxGeometry>
        </mxCell>
        <mxCell id="JDfibJYSGMVDQG5PVyvn-40" value="MOSTRAR HISTORIAL&lt;div&gt;DE TRANSACCIONES&lt;/div&gt;" style="rounded=1;whiteSpace=wrap;html=1;absoluteArcSize=1;arcSize=14;strokeWidth=2;fontFamily=Courier New;fillColor=#dae8fc;strokeColor=#6c8ebf;" vertex="1" parent="WIyWlLk6GJQsqaUBKTNV-1">
          <mxGeometry x="740" y="1080" width="170" height="80" as="geometry" />
        </mxCell>
        <mxCell id="JDfibJYSGMVDQG5PVyvn-47" style="edgeStyle=orthogonalEdgeStyle;rounded=0;orthogonalLoop=1;jettySize=auto;html=1;exitX=0.5;exitY=1;exitDx=0;exitDy=0;entryX=0.5;entryY=0;entryDx=0;entryDy=0;" edge="1" parent="WIyWlLk6GJQsqaUBKTNV-1" source="JDfibJYSGMVDQG5PVyvn-43" target="JDfibJYSGMVDQG5PVyvn-45">
          <mxGeometry relative="1" as="geometry" />
        </mxCell>
        <mxCell id="JDfibJYSGMVDQG5PVyvn-43" value="ELEGIR SERVICIO" style="rounded=1;whiteSpace=wrap;html=1;absoluteArcSize=1;arcSize=14;strokeWidth=2;fontFamily=Courier New;fillColor=#dae8fc;strokeColor=#6c8ebf;" vertex="1" parent="WIyWlLk6GJQsqaUBKTNV-1">
          <mxGeometry x="960" y="1080" width="170" height="80" as="geometry" />
        </mxCell>
        <mxCell id="JDfibJYSGMVDQG5PVyvn-48" style="edgeStyle=orthogonalEdgeStyle;rounded=0;orthogonalLoop=1;jettySize=auto;html=1;exitX=0.5;exitY=1;exitDx=0;exitDy=0;entryX=0.5;entryY=0;entryDx=0;entryDy=0;" edge="1" parent="WIyWlLk6GJQsqaUBKTNV-1" source="JDfibJYSGMVDQG5PVyvn-45" target="JDfibJYSGMVDQG5PVyvn-46">
          <mxGeometry relative="1" as="geometry" />
        </mxCell>
        <mxCell id="JDfibJYSGMVDQG5PVyvn-45" value="&lt;font face=&quot;Courier New&quot;&gt;INGRESO&amp;nbsp;&lt;/font&gt;&lt;div&gt;&lt;font style=&quot;background-color: transparent; color: light-dark(rgb(0, 0, 0), rgb(255, 255, 255));&quot; face=&quot;Courier New&quot;&gt;DE&amp;nbsp;&lt;/font&gt;&lt;span style=&quot;background-color: transparent; color: light-dark(rgb(0, 0, 0), rgb(255, 255, 255)); font-family: &amp;quot;Courier New&amp;quot;;&quot;&gt;MONTO&lt;/span&gt;&lt;/div&gt;" style="shape=parallelogram;html=1;strokeWidth=2;perimeter=parallelogramPerimeter;whiteSpace=wrap;rounded=1;arcSize=12;size=0.23;fillColor=#fff2cc;strokeColor=#d6b656;" vertex="1" parent="WIyWlLk6GJQsqaUBKTNV-1">
          <mxGeometry x="978" y="1190" width="134" height="70" as="geometry" />
        </mxCell>
        <mxCell id="JDfibJYSGMVDQG5PVyvn-49" style="edgeStyle=orthogonalEdgeStyle;rounded=0;orthogonalLoop=1;jettySize=auto;html=1;exitX=0.5;exitY=1;exitDx=0;exitDy=0;entryX=1;entryY=0.25;entryDx=0;entryDy=0;" edge="1" parent="WIyWlLk6GJQsqaUBKTNV-1" source="JDfibJYSGMVDQG5PVyvn-46" target="JDfibJYSGMVDQG5PVyvn-12">
          <mxGeometry relative="1" as="geometry">
            <Array as="points">
              <mxPoint x="1045" y="1390" />
              <mxPoint x="1150" y="1390" />
              <mxPoint x="1150" y="820" />
            </Array>
          </mxGeometry>
        </mxCell>
        <mxCell id="JDfibJYSGMVDQG5PVyvn-46" value="PROCESAR PAGO&lt;div&gt;DE SERVICIO&lt;/div&gt;&lt;div&gt;&lt;br&gt;&lt;/div&gt;&lt;div&gt;ACTUALIZAR SALDO&lt;/div&gt;" style="rounded=1;whiteSpace=wrap;html=1;absoluteArcSize=1;arcSize=14;strokeWidth=2;fontFamily=Courier New;fillColor=#d5e8d4;strokeColor=#82b366;" vertex="1" parent="WIyWlLk6GJQsqaUBKTNV-1">
          <mxGeometry x="960" y="1290" width="170" height="80" as="geometry" />
        </mxCell>
        <mxCell id="JDfibJYSGMVDQG5PVyvn-52" value="&lt;div&gt;CERRAR SESION&lt;/div&gt;&lt;div&gt;FIN&lt;/div&gt;" style="strokeWidth=2;html=1;shape=mxgraph.flowchart.start_1;whiteSpace=wrap;fontFamily=Courier New;fillColor=#dae8fc;strokeColor=#6c8ebf;gradientColor=#7ea6e0;" vertex="1" parent="WIyWlLk6GJQsqaUBKTNV-1">
          <mxGeometry x="910" y="620" width="150" height="90" as="geometry" />
        </mxCell>
        <mxCell id="JDfibJYSGMVDQG5PVyvn-53" style="edgeStyle=orthogonalEdgeStyle;rounded=0;orthogonalLoop=1;jettySize=auto;html=1;exitX=0.75;exitY=0;exitDx=0;exitDy=0;entryX=0.5;entryY=1;entryDx=0;entryDy=0;entryPerimeter=0;strokeWidth=2;endArrow=block;endFill=1;" edge="1" parent="WIyWlLk6GJQsqaUBKTNV-1" source="JDfibJYSGMVDQG5PVyvn-12" target="JDfibJYSGMVDQG5PVyvn-52">
          <mxGeometry relative="1" as="geometry" />
        </mxCell>
      </root>
    </mxGraphModel>
  </diagram>
</mxfile>
